<!DOCTYPE svg PUBLIC "-//W3C//DTD SVG 1.1//EN" "http://www.w3.org/Graphics/SVG/1.1/DTD/svg11.dtd">
<!-- Uploaded to: SVG Repo, www.svgrepo.com, Transformed by: SVG Repo Mixer Tools -->
<svg width="256px" height="256px" viewBox="-6.8 -6.8 33.60 33.60" version="1.1" xmlns="http://www.w3.org/2000/svg" xmlns:xlink="http://www.w3.org/1999/xlink" fill="#000000" stroke="#000000" transform="matrix(1, 0, 0, 1, 0, 0)rotate(0)">
<g id="SVGRepo_bgCarrier" stroke-width="0">
<rect x="-6.8" y="-6.8" width="33.60" height="33.60" rx="0" fill="#FDBA74" strokewidth="0"/>
</g>
<g id="SVGRepo_tracerCarrier" stroke-linecap="round" stroke-linejoin="round"/>
<g id="SVGRepo_iconCarrier"> <title>emoji_happy_missing [#000000]</title> <desc>Created with Sketch.</desc> <defs> </defs> <g id="Page-1" stroke-width="0.0002" fill="none" fill-rule="evenodd"> <g id="Dribbble-Light-Preview" transform="translate(-100.000000, -5679.000000)" fill="#000000"> <g id="icons" transform="translate(56.000000, 160.000000)"> <path d="M62,5533 L64,5533 L64,5525 L62,5525 L62,5533 Z M62,5537 L60,5537 L60,5539 L64,5539 L64,5535 L62,5535 L62,5537 Z M60,5519 L60,5521 L62,5521 L62,5523 L64,5523 L64,5519 L60,5519 Z M44,5533 L46,5533 L46,5525 L44,5525 L44,5533 Z M46,5535 L44,5535 L44,5539 L48,5539 L48,5537 L46,5537 L46,5535 Z M46,5521 L48,5521 L48,5519 L44,5519 L44,5523 L46,5523 L46,5521 Z M50,5539 L58,5539 L58,5537 L50,5537 L50,5539 Z M50,5521 L58,5521 L58,5519 L50,5519 L50,5521 Z M56,5528 L60,5528 L60,5524 L56,5524 L56,5528 Z M48,5528 L52,5528 L52,5524 L48,5524 L48,5528 Z M49.167,5529 L59.167,5529 C59.167,5536 49.167,5536 49.167,5529 L49.167,5529 Z" id="emoji_happy_missing-[#000000]"> </path> </g> </g> </g> </g>
</svg>