<!DOCTYPE svg PUBLIC "-//W3C//DTD SVG 1.1//EN" "http://www.w3.org/Graphics/SVG/1.1/DTD/svg11.dtd">
<!-- Uploaded to: SVG Repo, www.svgrepo.com, Transformed by: SVG Repo Mixer Tools -->
<svg width="256px" height="256px" viewBox="-33.28 -33.28 130.56 130.56" xmlns="http://www.w3.org/2000/svg" stroke-width="1.152" stroke="#FDBA74" fill="none">
<g id="SVGRepo_bgCarrier" stroke-width="0">
<path transform="translate(-33.28, -33.28), scale(4.08)" d="M16,26.363003820180893C17.424573630831432,26.358773996054058,18.747626475469595,25.653966867924066,19.98022910455077,24.93974093738488C21.14938835513402,24.26227698104172,21.769816569025963,22.85827617225271,23.002741947723393,22.30529717090428C25.184777701062096,21.326632952748113,28.7111823341206,22.599327086194663,29.866698465359036,20.505563453117766C30.892826939686294,18.646246716354902,28.157401376502722,16.687917912679445,27.128024789445387,14.830397464487854C26.383211310532985,13.486374019070746,25.237924459205875,12.430953053375111,24.613869329791065,11.02678022368087C23.907114714829355,9.436527086076108,24.071411322940136,7.5745011213082885,23.227027893287072,6.052849468938801C22.188129554472358,4.180665200056529,21.290556307476397,1.2294171867333705,19.149999688363714,1.180416621276363C16.770210884156644,1.1259396707331257,15.674891533248909,4.321552595561993,13.839993014711737,5.837966100329044C12.742157323611883,6.74524944661802,11.82832704813985,7.9924354670765805,10.454207835660156,8.36687193031194C8.141676364792795,8.997018206710672,5.388145791849829,7.435370310724927,3.349865809379665,8.696441619760453C1.550803206157887,9.809510605176424,0.7356775398687789,12.277899422887039,0.7135883499395437,14.393333393564056C0.6914827876079934,16.510335313819535,1.794833141356002,18.592957994380185,3.230277721563482,20.149134283688166C4.568780068608515,21.60021476730634,6.727927681571209,21.840826942779834,8.458876217558831,22.790058352260644C9.688966223007766,23.464624952817793,10.741423288318424,24.362726379352274,12.009233503952853,24.963408306186746C13.297244076942542,25.57366105792014,14.574741515193548,26.367235677766587,16,26.363003820180893" fill="#F2EEB6" strokewidth="0"/>
</g>
<g id="SVGRepo_tracerCarrier" stroke-linecap="round" stroke-linejoin="round"/>
<g id="SVGRepo_iconCarrier">
<path d="M39.75,19l-4.92-3.68,4.79-2.84L35.38,7.74H52.16V43.4L40.21,56.26H14.55V7.74H26.68l3.7,4-3.27,3.91,4.54,4-3.84,9.25a.1.1,0,0,0,.14.13Z" stroke-linecap="round"/>
<polyline points="40.19 56.26 40.21 43.4 52.16 43.4"/>
</g>
</svg>