<svg id="visual" viewBox="0 0 1024 400" width="1024" height="400" xmlns="http://www.w3.org/2000/svg" xmlns:xlink="http://www.w3.org/1999/xlink" version="1.1"><rect x="0" y="0" width="1024" height="400" fill="#FCFCF4"></rect><path d="M0 233L146 255L293 266L439 240L585 264L731 261L878 263L1024 255L1024 401L878 401L731 401L585 401L439 401L293 401L146 401L0 401Z" fill="#f2eeb6"></path><path d="M0 266L146 316L293 301L439 284L585 278L731 317L878 269L1024 278L1024 401L878 401L731 401L585 401L439 401L293 401L146 401L0 401Z" fill="#f3e2a3"></path><path d="M0 301L146 313L293 316L439 301L585 319L731 317L878 331L1024 314L1024 401L878 401L731 401L585 401L439 401L293 401L146 401L0 401Z" fill="#f5d691"></path><path d="M0 346L146 328L293 348L439 333L585 344L731 331L878 341L1024 356L1024 401L878 401L731 401L585 401L439 401L293 401L146 401L0 401Z" fill="#f9c881"></path><path d="M0 364L146 368L293 353L439 367L585 381L731 366L878 358L1024 375L1024 401L878 401L731 401L585 401L439 401L293 401L146 401L0 401Z" fill="#fdba74"></path></svg>